<?xml version="1.0" encoding="UTF-8"?>
<svg id="_图层_2" data-name="图层 2" xmlns="http://www.w3.org/2000/svg" width="400" heigth="400" viewBox="0 0 365.27 279.2">
  <defs>
    <style>
      .cls-1 {
        stroke-dasharray: 0 0 9.31 9.31;
      }

      .cls-1, .cls-2, .cls-3, .cls-4, .cls-5, .cls-6, .cls-7, .cls-8, .cls-9 {
        stroke: #c6d6f7;
      }

      .cls-1, .cls-2, .cls-5, .cls-6, .cls-8, .cls-9 {
        fill: none;
      }

      .cls-1, .cls-2, .cls-6, .cls-7, .cls-8, .cls-9 {
        stroke-linejoin: round;
      }

      .cls-3, .cls-4, .cls-5 {
        stroke-miterlimit: 10;
      }

      .cls-3, .cls-10 {
        fill: #c6d6f7;
      }

      .cls-4, .cls-7 {
        fill: #3d57da;
      }

      .cls-6 {
        stroke-dasharray: 0 0 11.2 11.2;
      }

      .cls-10 {
        stroke-width: 0px;
      }

      .cls-8 {
        stroke-dasharray: 0 0 9.21 9.21;
      }

      .cls-9 {
        stroke-dasharray: 0 0 11.1 11.1;
      }
    </style>
  </defs>
  <g id="_图层_1-2" data-name="图层 1">
    <g>
      <path class="cls-2" d="M160.23,54.16l6.63-3.52c10.04-5.33,21.53-5.33,31.57,0l63.52,33.7,92.39,48.99,6.1,3.26c2.9,1.54,4.35,4.73,4.35,7.96,0,.7-.06,1.4-.21,2.07,0,.04,0,.07-.03.11-.5,2.38-1.87,4.59-4.12,5.79l-36.24,19.25-27.24,14.45-35,18.59-8.88,4.7-51.79,27.46-2.84,1.51c-5.12,2.74-10.63,4.07-16.11,4-5.27-.07-10.54-1.4-15.46-4l-1.75-.91-3.61-1.93-49.27-26.13-43.88-23.29L4.85,152.52c-2.9-1.54-4.35-4.77-4.35-7.96s1.45-6.42,4.35-7.96L160.23,54.16"/>
      <g>
        <ellipse class="cls-4" cx="266.41" cy="131.66" rx="77.91" ry="40.12" transform="translate(66 351.08) rotate(-73.89)"/>
        <g>
          <ellipse class="cls-5" cx="266.68" cy="132.77" rx="63.48" ry="31.93" transform="translate(65.13 352.14) rotate(-73.89)"/>
          <path class="cls-4" d="M218.6,168.94c-4.25-4.1-9.7-5.61-12.61-2.63-.32.32-94.57,93.9-94.57,93.9-.14.12-.28.23-.41.36-.06.06-.11.14-.17.21l-.03.03h0c-2.8,3.26-1.48,9.28,3.06,13.66,4.53,4.37,10.59,5.46,13.74,2.56l.05.05,93.87-95.83c2.37-3.01,1.14-8.39-2.94-12.31Z"/>
          <ellipse class="cls-3" cx="119.46" cy="268.74" rx="8.02" ry="11.7" transform="translate(-156.98 168.37) rotate(-46.08)"/>
          <path class="cls-3" d="M288.41,53.39l-16.81-6.1c-21.32-6.16-48.31,22.42-60.27,63.84-5.9,20.43-8.33,40.03-6.55,55.99l.05.04c.22-.39.47-.76.79-1.08,2.81-2.92,8.53-1.96,12.79,2.14,4.08,3.92,5.19,9.76,2.82,12.77l-9.23,9.46c2.97,4.78,5.86,8.66,11.1,12.1,7.67,4.63,13.6,5.86,20.01,7.71,22.3,6.44,50.52-23.45,63.03-66.77,12.51-43.31,4.57-83.65-17.73-90.09ZM304.3,142.95c-11.94,41.34-38.87,69.87-60.16,63.72-21.29-6.15-28.86-44.64-16.92-85.98,11.94-41.34,38.87-69.87,60.16-63.72,21.29,6.15,28.86,44.64,16.92,85.98Z"/>
          <path class="cls-5" d="M276.11,71.48s21.93,21.28,5.35,66.59c-16.58,45.31-39.89,51.16-39.89,51.16"/>
        </g>
      </g>
      <polygon class="cls-7" points="62.61 135.81 23.48 158.61 23.48 204.22 62.61 227.02 101.74 204.22 101.74 158.61 62.61 135.81"/>
      <g>
        <polyline class="cls-2" points="101.74 164.61 101.74 158.61 96.55 161.63"/>
        <line class="cls-9" x1="86.97" y1="167.22" x2="72.59" y2="175.6"/>
        <polyline class="cls-2" points="67.79 178.39 62.61 181.42 62.61 187.42"/>
        <line class="cls-6" x1="62.61" y1="198.62" x2="62.61" y2="215.42"/>
        <polyline class="cls-2" points="62.61 221.02 62.61 227.02 67.79 224"/>
        <line class="cls-9" x1="77.38" y1="218.41" x2="91.76" y2="210.03"/>
        <polyline class="cls-2" points="96.55 207.24 101.74 204.22 101.74 198.22"/>
        <line class="cls-6" x1="101.74" y1="187.02" x2="101.74" y2="170.21"/>
      </g>
      <g>
        <line class="cls-2" x1="23.48" y1="158.61" x2="28.66" y2="161.63"/>
        <line class="cls-9" x1="38.25" y1="167.22" x2="52.63" y2="175.6"/>
        <line class="cls-2" x1="57.43" y1="178.39" x2="62.61" y2="181.42"/>
      </g>
      <g>
        <polygon class="cls-7" points="62.43 66.4 39.45 79.79 39.45 106.56 43.25 108.77 62.43 119.95 85.4 106.56 85.4 79.79 62.43 66.4"/>
        <g>
          <polyline class="cls-2" points="67.61 116.93 62.43 119.95 62.43 113.95"/>
          <polyline class="cls-2" points="62.43 99.17 62.43 93.17 67.61 90.15"/>
          <polyline class="cls-2" points="80.22 82.81 85.4 79.79 85.4 85.79"/>
          <polyline class="cls-2" points="85.4 100.56 85.4 106.56 80.22 109.58"/>
        </g>
        <g>
          <line class="cls-2" x1="39.45" y1="79.79" x2="44.64" y2="82.81"/>
          <line class="cls-2" x1="57.24" y1="90.15" x2="62.43" y2="93.17"/>
        </g>
      </g>
      <g>
        <polygon class="cls-7" points="182.64 .5 148.39 20.46 148.39 60.37 182.64 80.33 216.88 60.37 216.88 20.46 182.64 .5"/>
        <g>
          <polyline class="cls-2" points="187.82 77.31 182.64 80.33 182.64 74.33"/>
          <line class="cls-1" x1="182.64" y1="65.03" x2="182.64" y2="51.07"/>
          <polyline class="cls-2" points="182.64 46.42 182.64 40.42 187.82 37.4"/>
          <line class="cls-8" x1="195.78" y1="32.76" x2="207.72" y2="25.8"/>
          <polyline class="cls-2" points="211.7 23.48 216.88 20.46 216.88 26.46"/>
          <line class="cls-1" x1="216.88" y1="35.76" x2="216.88" y2="49.72"/>
          <polyline class="cls-2" points="216.88 54.37 216.88 60.37 211.7 63.4"/>
          <line class="cls-8" x1="203.74" y1="68.03" x2="191.8" y2="74.99"/>
        </g>
        <g>
          <line class="cls-2" x1="148.39" y1="20.46" x2="153.57" y2="23.48"/>
          <line class="cls-8" x1="161.53" y1="28.12" x2="173.47" y2="35.08"/>
          <line class="cls-2" x1="177.45" y1="37.4" x2="182.64" y2="40.42"/>
        </g>
      </g>
      <circle class="cls-10" cx="243.59" cy="67.28" r="4"/>
      <circle class="cls-10" cx="316.72" cy="52.53" r="2.52"/>
      <circle class="cls-10" cx="181.48" cy="117.69" r="6.39"/>
      <circle class="cls-10" cx="327.98" cy="146.92" r="7.89"/>
      <line class="cls-2" x1="287.13" y1="97.71" x2="258.14" y2="82.33"/>
    </g>
  </g>
</svg>