<?xml version="1.0" encoding="UTF-8"?>
<svg id="_图层_2" data-name="图层 2" xmlns="http://www.w3.org/2000/svg"  viewBox="0 0 509.46 305.56">
  <defs>
    <style>
      .cls-1, .cls-2, .cls-3 {
        fill: none;
      }

      .cls-1, .cls-3, .cls-4 {
        stroke: #3d57da;
      }

      .cls-1, .cls-4 {
        stroke-linejoin: round;
      }

      .cls-2, .cls-5, .cls-6, .cls-7, .cls-8, .cls-9 {
        stroke-width: 0px;
      }

      .cls-3 {
        stroke-miterlimit: 10;
      }

      .cls-4, .cls-8 {
        fill: #dddee4;
      }

      .cls-6 {
        fill: #3d57da;
      }

      .cls-7 {
        fill: #121316;
      }

      .cls-9 {
        fill: #fff;
      }
    </style>
  </defs>
  <g id="_图层_1-2" data-name="图层 1">
    <g>
      <path class="cls-6" d="M215.63,221.63c0-2.23,1.19-4.43,3.56-5.5l117.74-52.75-.7-.31c-7.06-3.23-15.95-1.7-25.46,2.55l-128.08,57.92c-2.74,1.23-4.12,3.78-4.12,6.36s1.38,5.14,4.12,6.37l55.66,24.36,41.52,18.6,46.59,20.87,3.44,1.54,1.64.73c9.51,4.25,20.36,4.25,29.86,0l2.71-1.21h0s-1.41.09-1.41.09c-4.4.03-8.8-.87-12.89-2.71l-1.41-.64-128.84-57.72c-2.35-1.02-3.51-3.21-3.51-5.39"/>
      <g>
        <g>
          <path class="cls-2" d="M269.94,155.62v11.84c0-2.01-1.09-4.02-3.23-4.98l-2.36-1.04,2.36-1.07c2.06-.91,3.15-2.82,3.23-4.75Z"/>
          <path class="cls-2" d="M266.72,162.48c2.13.97,3.23,2.97,3.23,4.98s-1.09,4.02-3.23,4.96l-117.7,52.74v-12.05l115.34-51.67,2.36,1.04Z"/>
        </g>
        <g>
          <path class="cls-1" d="M264.35,161.44l2.36,1.04c2.13.97,3.23,2.97,3.23,4.98s-1.09,4.02-3.23,4.96l-117.7,52.74-2.11.94c-7.45,3.33-15.94,3.33-23.36,0l-1.3-.58L3.73,172.42c-2.16-.94-3.23-2.95-3.23-4.96s1.07-4.02,3.23-4.98l2.36-1.04"/>
          <path class="cls-1" d="M208.64,124.42l58.07,26.02c2.21.99,3.3,3.1,3.23,5.18-.08,1.93-1.17,3.84-3.23,4.75l-2.36,1.07-115.34,51.67h0l-2.11.94c-7.45,3.33-15.94,3.33-23.36,0l-1.27-.56L6.1,161.44l-2.36-1.07c-2.08-.91-3.15-2.82-3.23-4.75-.08-2.08,1.02-4.19,3.23-5.18l57.3-25.67"/>
          <polyline class="cls-1" points=".5 155.62 .5 167.47 .5 168.08"/>
          <polyline class="cls-1" points="269.94 155.62 269.94 167.47 269.94 168.08"/>
          <polyline class="cls-1" points="122.27 213.09 122.27 213.49 122.27 225.44"/>
          <polyline class="cls-1" points="149.01 213.09 149.01 213.11 149.01 225.16 149.01 225.44"/>
        </g>
      </g>
      <g>
        <g>
          <path class="cls-2" d="M508.95,222.29v12.88c0-2.18-1.19-4.37-3.51-5.42l-2.57-1.13,2.57-1.16c2.24-.99,3.43-3.07,3.51-5.17Z"/>
          <path class="cls-2" d="M505.44,229.75c2.32,1.05,3.51,3.23,3.51,5.42s-1.19,4.37-3.51,5.39l-127.95,57.33v-13.1l125.38-56.17,2.57,1.13Z"/>
        </g>
        <g>
          <path class="cls-1" d="M502.87,228.61l2.57,1.13c2.32,1.05,3.51,3.23,3.51,5.42s-1.19,4.37-3.51,5.39l-127.95,57.33-2.29,1.02c-8.1,3.62-17.32,3.62-25.39,0l-1.41-.64-128.84-57.72c-2.35-1.02-3.51-3.21-3.51-5.39s1.16-4.37,3.51-5.42l2.57-1.13"/>
          <path class="cls-1" d="M377.49,284.78l-2.29,1.02c-8.1,3.62-17.32,3.62-25.39,0l-1.38-.61-126.3-56.59-2.57-1.16c-2.27-.99-3.43-3.07-3.51-5.17-.08-2.27,1.11-4.56,3.51-5.64l130.25-58.35c8.07-3.62,17.3-3.62,25.39,0l130.25,58.35c2.4,1.08,3.59,3.37,3.51,5.64-.08,2.1-1.27,4.17-3.51,5.17l-2.57,1.16-125.38,56.17h0Z"/>
          <polyline class="cls-1" points="216.05 222.29 216.05 235.16 216.05 235.82"/>
          <polyline class="cls-1" points="508.95 222.29 508.95 235.16 508.95 235.82"/>
          <polyline class="cls-1" points="348.42 284.76 348.42 285.2 348.42 298.18"/>
          <polyline class="cls-1" points="377.49 284.76 377.49 284.78 377.49 297.88 377.49 298.18"/>
        </g>
      </g>
      <g>
        <path class="cls-7" d="M437.08,200.32c.51.17.76.58.76,1.01,0,.47-.3.98-.88,1.26l-13.81,6.74v-3.93l9.65-4.71c1.39-.67,2.95-.81,4.28-.37h0Z"/>
        <path class="cls-8" d="M423.15,209.33v1.82c0-.49-.39-.94-1.04-1.31l1.04-.51h0Z"/>
        <path class="cls-8" d="M423.15,205.4v3.93l-1.04.51c-1-.56-2.63-.92-4.47-.92-.71,0-1.38.05-2,.15l7.51-3.67h0Z"/>
        <path class="cls-8" d="M423.15,198.71v6.69l-7.51,3.67c-1.74.27-3.05.9-3.4,1.66l-.1.05v-12.07c0,1.23,2.46,2.23,5.5,2.23s5.51-1,5.51-2.23h0Z"/>
        <path class="cls-8" d="M422.11,209.84c.65.37,1.04.82,1.04,1.31,0,1.23-2.47,2.23-5.51,2.23-.84,0-1.63-.08-2.34-.21l6.81-3.33h0Z"/>
        <path class="cls-8" d="M422.11,209.84l-6.81,3.33c-1.87-.36-3.16-1.13-3.16-2.02,0-.14.03-.29.1-.42l3.4-1.66c.62-.1,1.29-.15,2-.15,1.84,0,3.47.36,4.47.92Z"/>
        <path class="cls-8" d="M415.64,209.07l-3.4,1.66c.35-.76,1.66-1.39,3.4-1.66Z"/>
        <path class="cls-5" d="M415.3,213.17l-88.31,43.13c-1.39.67-2.96.81-4.29.37-.51-.17-.76-.58-.76-1.01,0-.47.3-.98.88-1.26l89.32-43.62v.37c0,.89,1.29,1.66,3.16,2.02h0Z"/>
        <path class="cls-9" d="M412.14,210.78l.1-.05c-.07.13-.1.28-.1.42v-.37Z"/>
        <path class="cls-6" d="M405.97,185.21c.51.17.76.57.76,1,0,.47-.3.98-.88,1.26l-65.66,32.07v-3.93l61.5-30.03c1.39-.68,2.95-.82,4.28-.37h0Z"/>
        <path class="cls-5" d="M374.14,169.23c.51.17.75.57.75,1,0,.47-.29.98-.87,1.26l-16.52,8.07v-3.93l12.35-6.03c1.39-.68,2.96-.82,4.29-.37h0Z"/>
        <path class="cls-5" d="M352.85,181.83l-88.81,43.37c-1.39.68-2.96.81-4.29.37-.5-.17-.75-.57-.75-1,0-.47.3-.98.87-1.26l87.28-42.62c.93.7,2.75,1.17,4.84,1.17.29,0,.58,0,.86-.03h0Z"/>
        <path class="cls-9" d="M340.19,219.54v1.45c0-.4-.26-.78-.72-1.1l.72-.35h0Z"/>
        <path class="cls-5" d="M332.9,223.1l-37.02,18.08c-1.39.68-2.96.81-4.29.37-.51-.17-.76-.57-.76-1,0-.47.3-.98.88-1.26l37.47-18.3c0,.99,1.55,1.81,3.72,2.11Z"/>
        <g>
          <path class="cls-8" d="M334.68,210.54c-3.04,0-5.5-1-5.5-2.23v12.68c0,.99,1.55,1.81,3.72,2.11.56.08,1.16.12,1.78.12,3.05,0,5.51-.99,5.51-2.23,0-.4-.26-.78-.72-1.1l.72-.35v-3.93h0v-7.3c0,1.23-2.47,2.23-5.51,2.23ZM333.66,218.8h0c.33-.03.67-.04,1.02-.04-.35,0-.69.01-1.02.04Z"/>
          <path class="cls-1" d="M329.18,208.31c0-1.24,2.46-2.23,5.5-2.23s5.51.99,5.51,2.23-2.46,2.23-5.51,2.23-5.5-1-5.5-2.23Z"/>
        </g>
        <path class="cls-1" d="M340.19,220.99c0,1.24-2.46,2.23-5.51,2.23-.62,0-1.22-.04-1.78-.12-2.17-.3-3.72-1.12-3.72-2.11"/>
        <polyline class="cls-1" points="340.19 208.31 340.19 215.61 340.19 219.54 340.19 220.99"/>
        <polyline class="cls-1" points="329.18 208.31 329.18 215.61 329.18 219.54 329.18 220.99"/>
        <g>
          <path class="cls-9" d="M357.5,179.16v1.45c0-.4-.26-.78-.72-1.1l.72-.35h0Z"/>
          <g>
            <path class="cls-8" d="M351.99,170.16c-3.04,0-5.5-1-5.5-2.23v12.68c0,.99,1.55,1.81,3.72,2.11.56.08,1.16.12,1.78.12,3.05,0,5.51-.99,5.51-2.23,0-.4-.26-.78-.72-1.1l.72-.35v-3.93h0v-7.3c0,1.23-2.47,2.23-5.51,2.23ZM350.97,178.42h0c.33-.03.67-.04,1.02-.04-.35,0-.69.01-1.02.04Z"/>
            <path class="cls-1" d="M346.49,167.93c0-1.24,2.46-2.23,5.5-2.23s5.51.99,5.51,2.23-2.46,2.23-5.51,2.23-5.5-1-5.5-2.23Z"/>
          </g>
          <path class="cls-1" d="M357.5,180.61c0,1.24-2.46,2.23-5.51,2.23-.62,0-1.22-.04-1.78-.12-2.17-.3-3.72-1.12-3.72-2.11"/>
          <polyline class="cls-1" points="357.5 167.93 357.5 175.23 357.5 179.16 357.5 180.61"/>
          <polyline class="cls-1" points="346.49 167.93 346.49 175.23 346.49 179.16 346.49 180.61"/>
        </g>
        <path class="cls-1" d="M412.14,198.71c0-1.23,2.46-2.23,5.5-2.23s5.51,1,5.51,2.23-2.47,2.23-5.51,2.23-5.5-1-5.5-2.23Z"/>
        <path class="cls-1" d="M423.15,211.15c0,1.23-2.47,2.23-5.51,2.23-.84,0-1.63-.08-2.34-.21-1.87-.36-3.16-1.13-3.16-2.02"/>
        <polyline class="cls-1" points="412.14 198.71 412.14 210.78 412.14 211.15"/>
        <polyline class="cls-1" points="423.15 198.71 423.15 205.4 423.15 209.33 423.15 211.15"/>
        <path class="cls-6" d="M415.3,213.17l-88.31,43.13c-1.39.67-2.96.81-4.29.37-.51-.17-.76-.58-.76-1.01,0-.47.3-.98.88-1.26l89.32-43.62"/>
        <path class="cls-6" d="M423.15,205.4l9.65-4.71c1.39-.67,2.95-.81,4.28-.37.51.17.76.58.76,1.01,0,.47-.3.98-.88,1.26l-13.81,6.74"/>
        <path class="cls-6" d="M332.9,223.1l-37.02,18.08c-1.39.68-2.96.81-4.29.37-.51-.17-.76-.57-.76-1,0-.47.3-.98.88-1.26l37.47-18.3"/>
        <path class="cls-2" d="M340.19,215.61l61.5-30.03c1.39-.68,2.95-.82,4.28-.37.51.17.76.57.76,1,0,.47-.3.98-.88,1.26l-65.66,32.07"/>
        <path class="cls-6" d="M352.85,181.83l-88.81,43.37c-1.39.68-2.96.81-4.29.37-.5-.17-.75-.57-.75-1,0-.47.3-.98.87-1.26l87.28-42.62"/>
        <path class="cls-6" d="M357.5,175.63l12.35-6.03c1.39-.68,2.96-.82,4.29-.37.51.17.75.57.75,1,0,.47-.29.98-.87,1.26l-16.52,8.07"/>
      </g>
      <path class="cls-1" d="M416.93,244.34l-51.2,23.02c-3.8,1.71-8.13,1.81-12.01.28h0c-2.31-.91-2.39-4.16-.12-5.17l51.2-23.02c3.8-1.71,8.13-1.81,12.01-.28h0c2.31.91,2.39,4.16.12,5.17Z"/>
      <g>
        <path class="cls-6" d="M470.69,220.52c.22.46.34.92.34,1.41,0,3.49-6,6.31-13.42,6.31s-13.42-2.83-13.42-6.31c0-1.74,1.5-3.33,3.92-4.47v4.17c0,2.53,5.05,4.57,11.28,4.57s11.28-2.05,11.28-4.57v-1.11h0Z"/>
        <path class="cls-6" d="M466.26,208.64c.81,0,1.47.37,1.47.83s-.66.83-1.47.83-1.48-.37-1.48-.83.66-.83,1.48-.83Z"/>
        <ellipse class="cls-1" cx="459.41" cy="210.36" rx="11.28" ry="4.57"/>
        <path class="cls-1" d="M470.69,221.63c0,2.53-5.05,4.57-11.28,4.57s-11.28-2.05-11.28-4.57"/>
        <polyline class="cls-1" points="448.13 210.36 448.13 217.19 448.13 217.46 448.13 221.63"/>
        <polyline class="cls-1" points="470.69 210.36 470.69 217.73 470.69 220.52 470.69 221.63"/>
        <path class="cls-1" d="M470.69,217.73c3.53,1.54,5.75,3.75,5.75,6.21,0,4.64-7.92,8.41-17.71,8.41s-17.71-3.77-17.71-8.41c0-2.76,2.8-5.21,7.11-6.74"/>
      </g>
      <path class="cls-3" d="M208.64,124.42l71.14-31.64c7.84-3.57,16.74-3.87,24.8-.83l159.46,66.68c4.84,1.83,5.01,8.73.28,10.82l-32.43,14.25"/>
      <g>
        <ellipse class="cls-6" cx="244.63" cy="293.55" rx="15.46" ry="4.69"/>
        <circle class="cls-4" cx="251.27" cy="284.35" r="13.09"/>
      </g>
      <g>
        <ellipse class="cls-6" cx="245.84" cy="108.58" rx="19.73" ry="5.99"/>
        <circle class="cls-4" cx="254.3" cy="96.84" r="16.7"/>
      </g>
      <g>
        <path class="cls-6" d="M106.41,100.87l-31.87,14.28-11.73-5.26c-1.18-.53-1.77-1.63-1.77-2.73s.59-2.2,1.77-2.73l25.78-11.55,17.83,7.99Z"/>
        <path class="cls-6" d="M77.48,142.38l-14.68,6.58c-1.18.53-1.77,1.63-1.77,2.73v-16.67l16.44,7.36h0Z"/>
        <path class="cls-6" d="M62.8,125.86l25.78,11.55-11.1,4.97-16.44-7.36v-11.89c0,1.1.59,2.2,1.77,2.73h0Z"/>
        <path class="cls-6" d="M62.8,36.8l25.78,11.55-25.78,11.55c-1.18.53-1.77,1.63-1.77,2.73v-28.56c0,1.1.59,2.2,1.77,2.73Z"/>
        <path class="cls-6" d="M76.7,87.56l11.88,5.32-25.78,11.55c-1.18.53-1.77,1.63-1.77,2.73v-12.58l15.67-7.02Z"/>
        <path class="cls-6" d="M76.7,87.56l-15.67,7.02v-15.98c0,1.1.59,2.2,1.77,2.73,0,0,13.9,6.23,13.9,6.23Z"/>
        <polyline class="cls-1" points="61.03 123.13 61.03 135.02 61.03 151.69 61.03 151.97"/>
        <polyline class="cls-1" points="208.94 123.13 208.94 132.8 208.94 137.66 208.94 151.69 208.94 151.97"/>
        <polyline class="cls-1" points="61.03 78.6 61.03 94.58 61.03 107.16 61.03 107.44"/>
        <polyline class="cls-1" points="61.03 34.07 61.03 62.63 61.03 62.91"/>
        <polyline class="cls-1" points="208.94 34.07 208.94 62.63 208.94 62.91"/>
        <polyline class="cls-1" points="208.94 78.46 208.94 107.02 208.94 107.3"/>
        <polygon class="cls-6" points="142.56 91.45 145.74 92.88 142.56 94.3 142.56 91.45"/>
        <path class="cls-8" d="M142.56,154.81v16.73l-14.68-6.58v-9.94l.7.31c4.08,1.83,8.74,1.83,12.82,0l1.16-.52h0Z"/>
        <path class="cls-8" d="M127.88,119.8l.7-.31c4.08-1.82,8.74-1.82,12.82,0l1.16.52v18.83l-1.16.52c-4.07,1.82-8.74,1.82-12.82,0l-22.18-9.93,21.47-9.62h0Z"/>
        <path class="cls-8" d="M142.56,110.28v9.73l-1.16-.52c-4.07-1.82-8.74-1.82-12.82,0l-.7.31v-9.32l.7.31c4.08,1.82,8.74,1.82,12.82,0l1.16-.52h0Z"/>
        <path class="cls-8" d="M127.88,91.25l.7-.31c4.08-1.83,8.74-1.83,12.82,0l1.16.52v2.85l-1.16.52c-4.07,1.83-8.74,1.83-12.82,0l-.61-1.53-.09-2.05Z"/>
        <path class="cls-8" d="M142.56,75.48v15.98l-1.16-.52c-4.07-1.83-8.74-1.83-12.82,0l-.7.31v-15.98l.7-.31c4.08-1.82,8.74-1.82,12.82,0l1.16.52Z"/>
        <path class="cls-8" d="M142.56,65.75v9.73l-1.16-.52c-4.07-1.82-8.74-1.82-12.82,0l-.7.31v-9.32l.7.31c4.08,1.82,8.74,1.82,12.82,0l1.16-.52Z"/>
        <path class="cls-8" d="M127.88,164.96v-9.94l-39.29-17.6-11.1,4.97-14.68,6.58c-1.18.53-1.77,1.62-1.77,2.73s.59,2.2,1.77,2.73l65.78,29.47c4.08,1.82,8.74,1.82,12.82,0l1.16-.52v-11.83l-14.68-6.58Z"/>
        <polyline class="cls-6" points="117.14 134.24 74.53 115.15 106.41 100.87 124.48 108.96"/>
        <polygon class="cls-6" points="127.88 75.27 127.88 93.98 124.24 92.88 106.41 84.89 127.88 75.27"/>
        <polygon class="cls-6" points="127.88 65.96 127.88 75.27 106.41 84.89 94.53 79.57 126.4 65.29 127.88 65.96"/>
        <polygon class="cls-6" points="126.4 65.29 94.53 79.57 74.53 70.61 106.4 56.34 126.4 65.29"/>
        <path class="cls-6" d="M88.58,48.35l17.82,7.99-31.87,14.27-11.73-5.26c-1.18-.53-1.77-1.63-1.77-2.73s.59-2.2,1.77-2.73c0,0,25.78-11.55,25.78-11.55Z"/>
        <path class="cls-1" d="M208.94,151.69c0,1.1-.59,2.2-1.77,2.73l-51.41,23.03-13.21,5.92-1.16.52c-4.07,1.82-8.74,1.82-12.82,0l-65.78-29.47c-1.18-.53-1.77-1.63-1.77-2.73"/>
        <path class="cls-1" d="M195.44,115.15l11.73,5.26c1.18.52,1.77,1.63,1.77,2.73s-.59,2.2-1.77,2.73l-25.78,11.55-38.84,17.4-1.16.52c-4.07,1.83-8.74,1.83-12.82,0l-.7-.31-39.29-17.6-25.78-11.55c-1.18-.52-1.77-1.63-1.77-2.73s.59-2.2,1.77-2.73l11.73-5.26"/>
        <polyline class="cls-1" points="127.88 154.89 127.88 155.02 127.88 164.96 127.88 183.52"/>
        <polyline class="cls-1" points="142.56 154.81 142.56 171.54 142.56 183.37 142.56 183.52"/>
        <path class="cls-1" d="M208.94,107.16c0,1.1-.59,2.2-1.77,2.73l-11.73,5.26-31.87,14.28-21.02,9.41-1.16.52c-4.07,1.82-8.74,1.82-12.82,0l-22.18-9.93-31.87-14.28-11.73-5.26c-1.18-.53-1.77-1.63-1.77-2.73"/>
        <path class="cls-1" d="M195.44,70.61l11.73,5.26c1.18.53,1.77,1.63,1.77,2.73,0,1.1-.59,2.2-1.77,2.73l-25.78,11.55-17.83,7.99-21.01,9.41-1.16.52c-4.07,1.82-8.74,1.82-12.82,0l-.7-.31-21.47-9.62-17.83-7.99-11.88-5.32-13.9-6.23c-1.18-.53-1.77-1.62-1.77-2.73,0-1.1.59-2.2,1.77-2.73l11.73-5.26"/>
        <polyline class="cls-1" points="127.88 110.36 127.88 110.49 127.88 139.36"/>
        <polyline class="cls-1" points="142.56 110.08 142.56 110.28 142.56 120.01 142.56 138.84 142.56 138.99"/>
        <path class="cls-1" d="M208.94,62.63c0,1.1-.59,2.2-1.77,2.73l-11.73,5.26-31.87,14.28-17.83,7.99-3.18,1.42-1.16.52c-4.07,1.83-8.74,1.83-12.82,0l-4.34-1.94-17.83-7.99-11.88-5.32-20-8.96-11.73-5.26c-1.18-.53-1.77-1.63-1.77-2.73"/>
        <path class="cls-1" d="M142.56,65.75l-1.16.52c-4.07,1.82-8.74,1.82-12.82,0l-.7-.31-1.47-.66-20-8.96-17.82-7.99-25.78-11.55c-1.18-.53-1.77-1.63-1.77-2.73s.59-2.2,1.77-2.73L128.58,1.87c4.08-1.82,8.74-1.82,12.82,0l63.3,28.36,2.48,1.11c1.18.53,1.77,1.63,1.77,2.73s-.59,2.2-1.77,2.73l-25.78,11.55-17.82,7.99-21.02,9.41h0Z"/>
        <polyline class="cls-1" points="127.88 65.83 127.88 65.96 127.88 75.27 127.88 91.25 127.88 94.46"/>
        <polyline class="cls-1" points="142.56 65.75 142.56 75.48 142.56 91.45 142.56 94.3 142.56 94.46"/>
        <g>
          <g>
            <path class="cls-8" d="M174.69,32.42c1.28.58,1.28,2.4,0,2.98l-35.88,16.07c-.85.38-1.75.62-2.66.7.78-.09,1.55-.29,2.28-.62l34.92-15.64-34.92-15.64c-1.98-.89-4.24-.89-6.23,0l-34.92,15.64,34.92,15.64c.73.33,1.5.53,2.28.62-.91-.09-1.81-.32-2.66-.7l-35.88-16.07c-1.28-.58-1.28-2.4,0-2.98l35.88-16.07c2.22-1,4.77-1,6.99,0l35.88,16.07h0Z"/>
            <path class="cls-9" d="M134.87,52.2c.3.02.6.02.89,0-.3.02-.6.02-.89,0Z"/>
          </g>
          <g>
            <path class="cls-1" d="M134.49,52.17c-.91-.09-1.81-.32-2.66-.7l-35.88-16.07c-1.28-.58-1.28-2.4,0-2.98l35.88-16.07c2.22-1,4.77-1,6.99,0l35.88,16.07c1.28.58,1.28,2.4,0,2.98l-35.88,16.07c-.85.38-1.75.62-2.66.7"/>
            <path class="cls-1" d="M134.49,52.17c-.78-.09-1.55-.29-2.28-.62l-34.92-15.64,34.92-15.64c1.98-.89,4.24-.89,6.23,0l34.92,15.64-34.92,15.64c-.73.33-1.5.53-2.28.62-.12.02-.25.03-.39.03-.3.02-.6.02-.89,0-.13,0-.26-.02-.39-.03h0Z"/>
          </g>
        </g>
        <path class="cls-6" d="M111.2,147.58l-23.08-10.03-11.1,4.97-14.68,6.58c-1.18.53-1.77,1.62-1.77,2.73,0,.91.42,1.8,1.23,2.39l42.43,18.35,6.98-24.98Z"/>
      </g>
    </g>
  </g>
</svg>