<?xml version="1.0" encoding="utf-8"?>
<!-- Generator: Adobe Illustrator 28.1.0, SVG Export Plug-In . SVG Version: 6.00 Build 0)  -->
<svg version="1.1" id="_图层_2" xmlns="http://www.w3.org/2000/svg" xmlns:xlink="http://www.w3.org/1999/xlink" x="0px" y="0px"
	 viewBox="0 0 258.5 179.4" style="enable-background:new 0 0 258.5 179.4;" xml:space="preserve">
<style type="text/css">
	.st0{fill:#C6D6F7;}
	.st1{fill:none;stroke:#C6D6F7;stroke-linejoin:round;}
	.st2{enable-background:new    ;}
	.st3{fill:none;stroke:#C6D6F7;stroke-miterlimit:10;}
</style>
<g id="_图层_1-2">
	<g>
		<circle class="st0" cx="23.1" cy="88" r="3.7"/>
		<circle class="st0" cx="194.2" cy="120.1" r="5.9"/>
		<g>
			<circle class="st1" cx="22.6" cy="31.5" r="21.8"/>
			<ellipse class="st1" cx="22.6" cy="31.5" rx="21.8" ry="6.1"/>
			<ellipse class="st1" cx="22.6" cy="31.5" rx="9.9" ry="21.8"/>
		</g>
		<g>
			<line class="st1" x1="105.7" y1="174.7" x2="105.7" y2="177.7"/>
			<line class="st1" x1="113.3" y1="174.5" x2="113.3" y2="177.6"/>
			<g>
				<path class="st1" d="M85.9,163.1v3.1c0,0.6,0.3,1.1,0.8,1.4l19.9,10.6c0.9,0.5,1.8,0.7,2.7,0.7c1,0,1.9-0.2,2.8-0.7l0.5-0.3
					l60.7-32.5c0.4-0.2,0.6-0.6,0.7-1c0,0,0,0,0,0c0-0.1,0-0.2,0-0.4v-3.1c0,0.1,0,0.2,0,0.4c0,0,0,0,0,0c-0.1,0.4-0.3,0.8-0.7,1
					l-0.2,0.1l-60.4,32.4l-0.5,0.3c-0.9,0.5-1.9,0.7-2.8,0.7c-0.9,0-1.9-0.2-2.7-0.7l-19.7-10.5l-0.2-0.1
					C86.1,164.2,85.9,163.7,85.9,163.1z"/>
				<path class="st1" d="M173.1,142.5l-60.4,32.4l-0.5,0.3c-0.9,0.5-1.9,0.7-2.8,0.7c-0.9,0-1.9-0.2-2.7-0.7l-19.7-10.5l-0.2-0.1
					c-0.5-0.3-0.8-0.9-0.8-1.4s0.3-1.1,0.8-1.4l60-32.1l1.2-0.6c1.8-0.9,3.8-0.9,5.6,0l19.9,10.6c0.5,0.3,0.8,0.8,0.8,1.4
					c0,0.1,0,0.2,0,0.4c0,0,0,0,0,0c-0.1,0.4-0.3,0.8-0.7,1L173.1,142.5L173.1,142.5z"/>
			</g>
		</g>
		<g class="st2">
			<path class="st0" d="M108.1,103.7c-0.3,0.1-0.4,0.1-0.4-0.2l0-29.2c0-0.3,0.1-0.5,0.4-0.6l4.5-2.3c3.1-1.6,5.5-1.8,7-0.6
				c1.5,1.2,2.3,3.9,2.3,7.9l0,4.5c0,4.6-0.7,8.3-2.2,11.3c-1.5,2.9-3.7,5.2-6.8,6.8L108.1,103.7z M110.7,99.5l1.9-1
				c2.3-1.2,3.9-2.8,4.8-4.9c1-2.1,1.4-5,1.4-8.6l0-4.9c0-3.1-0.5-5.2-1.5-6.1c-1-0.9-2.6-0.8-4.9,0.3l-1.7,0.9L110.7,99.5z"/>
			<path class="st0" d="M126.2,94.5c-0.2,0.1-0.3,0-0.3-0.3l0-29.2c0-0.3,0.1-0.5,0.3-0.6l3.8-1.9c0.2-0.1,0.3-0.1,0.4,0.1l5,15.1
				c0.2,0.7,0.5,1.4,0.7,2.3c0.2,0.9,0.5,1.7,0.7,2.6c0.2,0.9,0.4,1.7,0.6,2.4l0.1,0c0-0.6-0.1-1.3-0.1-2c0-0.7-0.1-1.5-0.1-2.2
				s0-1.5,0-2.2s0-1.4,0-2l0-17.3c0-0.2,0.1-0.4,0.3-0.5l2.2-1.1c0.2-0.1,0.3,0,0.3,0.2l0,29.3c0,0.3-0.1,0.5-0.3,0.6l-3.8,1.9
				c-0.2,0.1-0.3,0.1-0.3-0.1l-4.8-14.6c-0.5-1.4-0.9-2.8-1.2-4.1c-0.3-1.3-0.6-2.6-0.9-3.8l-0.1,0c0,0.9,0.1,1.8,0.1,2.9
				c0,1.1,0,2.2,0,3.2c0,1.1,0,2.1,0,2.9l0,16.7c0,0.3-0.1,0.5-0.3,0.6L126.2,94.5z"/>
			<path class="st0" d="M150.1,82.6c-1.7,0.8-3,1.1-3.9,0.9c-1-0.2-1.7-0.9-2-2c-0.4-1.1-0.5-2.5-0.4-4.1c0-0.3,0.1-0.5,0.3-0.6
				l2.3-1.2c0.2-0.1,0.4,0,0.3,0.3c-0.2,2,0,3.3,0.6,3.9c0.6,0.6,1.6,0.6,2.9-0.1c1.2-0.6,2.1-1.4,2.7-2.4c0.6-1,0.9-2.3,0.9-3.8
				c0-1.3-0.2-2.4-0.6-3c-0.4-0.7-1-1.1-1.9-1.3l-3.7-1c-1.3-0.3-2.2-1-2.8-1.9c-0.6-0.9-0.9-2.3-0.9-4c0-2.2,0.6-4.2,1.7-5.9
				s2.6-3.1,4.5-4.1c2.3-1.2,3.9-1.3,5-0.3c1.1,0.9,1.5,2.7,1.2,5.4c0,0.3-0.1,0.6-0.3,0.7l-2.3,1.2c-0.2,0.1-0.3,0-0.3-0.4
				c0.2-1.8,0-3-0.6-3.6c-0.6-0.6-1.5-0.6-2.6,0c-1,0.5-1.8,1.2-2.3,2.2c-0.6,0.9-0.9,2.1-0.9,3.4c0,1.2,0.2,2.2,0.6,2.8
				c0.4,0.6,1.1,1.1,2,1.3l3.6,1c0.9,0.2,1.6,0.6,2.1,1c0.5,0.5,0.9,1.1,1.2,2c0.2,0.8,0.4,1.9,0.4,3.2c0,2.3-0.5,4.4-1.6,6.3
				C154.1,79.9,152.4,81.4,150.1,82.6z"/>
		</g>
		<path class="st1" d="M247.5,70.7c7.7,7.4,11.4,15.1,10.3,22.6c-3.6,24.6-98.5,46.4-208.5,8.3"/>
		<path class="st1" d="M44.2,28.7c12-2.4,41.3-6,74.7-2"/>
		<g>
			<path class="st3" d="M168.2,5.6l4.7,3.5c-0.9-0.7-1.9-1.2-3-1.7C169.4,6.7,168.8,6.1,168.2,5.6L168.2,5.6z"/>
			<path class="st3" d="M169.9,7.3c1,0.5,2,1,3,1.7l0.5,0.4c5,3.7,8.5,9.8,9.2,18.2c0.1,1.2,0.2,2.5,0.1,3.9c0,0,0.3,0,0.7,0
				c1.1,0,3.4,0.1,5.9,1.1c0.6,0.2,1.3,0.5,1.9,0.9h0c3.1,1.7,6.2,4.8,7.9,10.5c0.7,2.5,1.2,5.6,1.2,9.3c0,32.4-30.9,47.1-30.9,47.1
				l-72.6,39.7c0,0-20.3,12.6-33.7,13.2c-2.3,0.1-4.5-0.6-6.5-1.8l0,0l-2.2-1.6l0,0c-0.7-0.6-1.4-1.3-2-2.1l0,0
				c-0.5-0.7-1-1.4-1.5-2.2c-8.6-15.4-2.2-31.1,5-39.4C67.5,93.1,77.1,95,77.1,95c-1.2-19,8.2-36.3,17.6-42c12.1-7.4,23-3.7,23-3.7
				c3.2-10.5,8.6-20.3,15.2-28s14.4-13.2,22.4-15.2C160.4,4.8,165.5,5.3,169.9,7.3L169.9,7.3z"/>
			<path class="st3" d="M54.5,149.8l2.2,1.6C55.9,151,55.2,150.4,54.5,149.8z"/>
			<path class="st3" d="M187.3,30.2l-0.9-0.7C186.7,29.8,187,30,187.3,30.2z"/>
			<path class="st3" d="M168.1,5.5l-2.8-2.1C166.3,4,167.2,4.7,168.1,5.5z"/>
			<path class="st3" d="M187.4,30.4c0.7,0.6,1.4,1.4,2.1,2.2c-2.5-1-4.8-1.1-5.9-1.1c-0.5,0-0.7,0-0.7,0c0-1.3,0-2.6-0.1-3.9
				c1.2,0.4,2.4,1,3.7,1.9l0,0l0.9,0.7C187.3,30.3,187.4,30.4,187.4,30.4z"/>
			<path class="st3" d="M54.5,149.8l-4.5-3.4c0.8,0.5,1.7,0.9,2.5,1.3l0,0C53.1,148.4,53.8,149.1,54.5,149.8L54.5,149.8z"/>
			<path class="st3" d="M187.4,30.4l4,3.1c-0.6-0.3-1.3-0.7-1.9-0.9C188.8,31.7,188.1,31,187.4,30.4z"/>
			<path class="st3" d="M173.4,9.4L172.9,9C173.1,9.1,173.3,9.3,173.4,9.4z"/>
			<path class="st3" d="M50,146.4c-2.5-1.6-4.6-3.9-5.5-5.8c-7.1-15.9-2.4-30.7,4.7-39.1l0.3-0.4c11.4-13,20.9-11.1,20.9-11.1
				c-1.2-19,8.2-36.3,17.6-42c14.4-8.8,20.6-4.5,23-3.7c3.2-10.5,8.6-20.3,15.2-28c6.6-7.7,14.4-13.2,22.4-15.2
				c5.9-1.5,11.8-0.7,16.6,2.2l0,0l2.8,2.1l0.1,0.1c0.6,0.5,1.2,1.1,1.8,1.8c-4.4-2.1-9.6-2.5-14.8-1.2c-8,2-15.8,7.6-22.4,15.2
				s-12,17.5-15.2,28c0,0-10.9-3.7-23,3.7C85.2,58.7,75.8,76,77,95c0,0-9.6-1.9-20.9,11.1c-7.3,8.3-13.6,24-5,39.4
				c0.4,0.8,0.9,1.5,1.5,2.2C51.7,147.4,50.8,146.9,50,146.4L50,146.4z"/>
			<path class="st1" d="M227.5,56.5c-8.1-4.5-17.6-8.7-28.2-12.5"/>
			<line class="st1" x1="199.3" y1="44" x2="199.3" y2="44"/>
			<line class="st3" x1="191.4" y1="33.5" x2="195.1" y2="36.3"/>
			<line class="st3" x1="173.4" y1="9.4" x2="173.8" y2="9.7"/>
			<line class="st3" x1="47.7" y1="144.7" x2="50" y2="146.4"/>
			<path class="st1" d="M49.2,101.6C49.2,101.6,49.3,101.6,49.2,101.6"/>
			<path class="st1" d="M6,45.6c-3,3.2-4.8,6.7-5.3,10.6c-2.2,15.5,17.1,32.3,48.6,45.4"/>
		</g>
		<path class="st0" d="M235,67.1L235,67.1l-1.1,2.7c-1.1-0.7-1.9-1.7-2.3-2.8v0l2.8-0.5l0,0c0.3,0,0.5,0.1,0.6,0.4c0,0,0,0.1,0,0.1
			C235,67,235,67,235,67.1L235,67.1L235,67.1L235,67.1z M234.1,64.8c0.3-0.1,0.4-0.3,0.3-0.6c0-0.1-0.1-0.2-0.1-0.2l0,0v0l-2.2-1.9
			c-0.6,0.9-0.9,1.9-0.8,3c0,0.2,0,0.4,0,0.7v0L234.1,64.8L234.1,64.8L234.1,64.8z M235.4,62.6c0.2,0.2,0.5,0.1,0.7-0.1
			c0.1-0.1,0.1-0.2,0.1-0.3l0,0h0l0.2-2.9c-1.3,0.2-2.4,0.7-3.3,1.6l0,0L235.4,62.6L235.4,62.6L235.4,62.6z M236.2,65.6L237,66
			l0.8-0.4l0.2-0.9l-0.6-0.7h-0.9l-0.6,0.7L236.2,65.6L236.2,65.6z M237.9,62.2c0,0.3,0.2,0.5,0.5,0.5c0.1,0,0.2,0,0.3-0.1l0,0l0,0
			l2.4-1.7c-0.9-0.9-2.1-1.4-3.3-1.6h0L237.9,62.2L237.9,62.2L237.9,62.2z M249.9,68.8l-6.4,7.9c-0.3,0.4-0.8,0.7-1.4,0.7h-10.3l0,0
			c-0.5,0-1-0.2-1.4-0.7l0,0l-6.4-8c-0.3-0.4-0.5-1-0.3-1.5l0,0l2.3-9.9c0.1-0.5,0.5-1,1-1.2l9.2-4.4c0.5-0.2,1.1-0.2,1.5,0h0
			l9.2,4.4c0.5,0.2,0.8,0.7,1,1.2l2.3,9.9C250.4,67.8,250.2,68.3,249.9,68.8L249.9,68.8L249.9,68.8z M246.3,66.5c0,0-0.1,0-0.2,0
			c-0.2,0-0.4,0-0.5,0c-0.4,0-0.7-0.1-1-0.2c-0.1,0-0.2-0.2-0.2-0.2l-0.2-0.1c0.1-0.3,0.1-0.7,0.1-1c0-0.6-0.1-1.1-0.2-1.7v0
			c-0.2-0.9-0.5-1.7-1-2.4l0,0c0.1,0,0.2-0.2,0.2-0.2c0-0.1,0-0.2,0.1-0.3c0.2-0.2,0.5-0.4,0.8-0.6c0.2-0.1,0.3-0.2,0.5-0.3
			c0,0,0.1-0.1,0.1-0.1c0.3-0.2,0.3-0.6,0.1-0.8s-0.6-0.3-0.8,0c0,0-0.1,0.1-0.1,0.1c-0.1,0.1-0.2,0.3-0.4,0.4
			c-0.3,0.3-0.5,0.5-0.7,0.7c-0.1,0.1-0.3,0-0.3,0l-0.2,0.2c-1.2-1.3-2.8-2-4.6-2.2h0l0-0.2c-0.1-0.1-0.2-0.1-0.2-0.3
			c0-0.3,0-0.6,0.1-1c0-0.2,0.1-0.3,0.1-0.5c0,0,0-0.1,0-0.2c0-0.3-0.2-0.6-0.6-0.6s-0.6,0.3-0.6,0.6v0c0,0,0,0.1,0,0.1
			c0,0.2,0.1,0.3,0.1,0.5c0.1,0.4,0.1,0.7,0.1,1c0,0.1-0.1,0.2-0.2,0.3l0,0l0,0.2c-1.8,0.1-3.4,0.9-4.6,2.2l0,0
			c-0.1,0-0.1-0.1-0.2-0.2l0,0c-0.1,0-0.2,0-0.3,0c-0.2-0.2-0.5-0.4-0.7-0.7c-0.1-0.1-0.2-0.3-0.4-0.4c0,0-0.1-0.1-0.1-0.1
			c-0.1-0.1-0.2-0.1-0.4-0.2l0,0c0,0,0,0,0,0c-0.2,0-0.3,0.1-0.4,0.2l0,0c-0.2,0.2-0.1,0.6,0.1,0.8l0,0l0.1,0.1
			c0.2,0.1,0.3,0.2,0.5,0.3c0.3,0.2,0.6,0.4,0.8,0.6c0.1,0.1,0.1,0.2,0.1,0.3l0.2,0.2c-0.8,1.2-1.2,2.6-1.2,4c0,0.3,0,0.7,0.1,1.1v0
			l-0.2,0.1c-0.1,0.1-0.1,0.2-0.2,0.2c-0.3,0.1-0.6,0.1-1,0.2c-0.2,0-0.3,0-0.5,0c0,0-0.1,0-0.1,0l0,0l0,0c-0.3,0.1-0.5,0.4-0.5,0.7
			c0.1,0.3,0.4,0.5,0.7,0.4l0,0h0l0.1,0c0.2-0.1,0.3-0.1,0.5-0.2c0.4-0.1,0.7-0.2,1-0.3c0.1,0,0.3,0.1,0.3,0.1l0.2,0
			c0.6,1.7,1.7,3.1,3.2,4l0,0l-0.1,0.2c0,0.1,0.1,0.2,0.1,0.3c-0.1,0.3-0.3,0.6-0.5,0.9c-0.1,0.2-0.2,0.3-0.3,0.4
			c0,0-0.1,0.1-0.1,0.2c-0.1,0.3,0,0.7,0.2,0.8c0.3,0.1,0.6,0,0.8-0.3l0,0c0,0,0.1-0.1,0.1-0.1c0.1-0.2,0.1-0.3,0.2-0.5
			c0.1-0.4,0.2-0.8,0.4-1c0.1-0.1,0.1-0.1,0.2-0.1l0.1-0.2c0.8,0.3,1.6,0.5,2.6,0.5c0.9,0,1.8-0.2,2.6-0.5l-0.1,0l0.1,0.2
			c0.1,0,0.2,0.1,0.3,0.2c0.1,0.3,0.2,0.6,0.4,0.9c0.1,0.2,0.1,0.3,0.2,0.5c0,0,0.1,0.1,0.1,0.1c0.1,0.3,0.5,0.4,0.8,0.3
			c0.3-0.1,0.4-0.5,0.2-0.8c0,0-0.1-0.1-0.1-0.2c-0.1-0.2-0.2-0.3-0.3-0.4c-0.2-0.3-0.4-0.6-0.5-0.9c0-0.1,0-0.2,0-0.3
			c0,0-0.1-0.2-0.1-0.2c1.5-0.9,2.6-2.3,3.2-4v-0.1c0.1,0,0.2,0,0.2,0c0.1-0.1,0.2-0.1,0.3-0.1c0.3,0,0.6,0.2,1,0.3
			c0.2,0.1,0.3,0.1,0.5,0.2c0,0,0.1,0,0.1,0l0,0l0,0c0.3,0.1,0.6-0.1,0.7-0.4C246.8,66.8,246.6,66.5,246.3,66.5L246.3,66.5
			L246.3,66.5z M241.9,62l-2.2,1.9l0,0c-0.2,0.2-0.2,0.5-0.1,0.7c0.1,0.1,0.1,0.1,0.2,0.2l0,0v0l2.8,0.8c0-0.2,0-0.4,0-0.6
			c0-0.4-0.1-0.9-0.1-1.3v0C242.4,63.1,242.2,62.5,241.9,62L241.9,62L241.9,62L241.9,62z M237.4,67.9c-0.1-0.2-0.2-0.3-0.4-0.3
			c0,0,0,0,0,0l0,0c-0.2,0-0.3,0.1-0.4,0.3l0,0l0,0l-1.4,2.5c0.6,0.2,1.2,0.3,1.9,0.3c0.6,0,1.3-0.1,1.9-0.3h0L237.4,67.9
			L237.4,67.9L237.4,67.9z M239.5,66.4C239.5,66.4,239.5,66.4,239.5,66.4c-0.2,0-0.2,0-0.3,0.1l0,0c-0.2,0.1-0.3,0.4-0.2,0.6l0,0
			l0,0l1.1,2.7c1.1-0.7,1.9-1.7,2.3-2.9v0L239.5,66.4L239.5,66.4L239.5,66.4z"/>
	</g>
</g>
</svg>
