<svg version="1.1" xmlns="http://www.w3.org/2000/svg" viewBox="0 0 1102.453125 371.681640625" width="2204.90625" height="743.36328125">
  <!-- svg-source:excalidraw -->
  
  <defs>
    <style class="style-fonts">
      @font-face {
        font-family: "Virgil";
        src: url("https://excalidraw.com/Virgil.woff2");
      }
      @font-face {
        font-family: "Cascadia";
        src: url("https://excalidraw.com/Cascadia.woff2");
      }
    </style>
  </defs>
  <rect x="0" y="0" width="1102.453125" height="371.681640625" fill="#ffffff"></rect><g stroke-linecap="round" transform="translate(10 12.205078125) rotate(0 83.833984375 48.576171875)"><path d="M22.65 0.28 L141.46 1.36 L158.98 4.28 L164.68 8.87 L169.16 17.1 L168.7 73.69 L165.08 89.6 L157.34 92.18 L144.3 97.08 L22.33 98.13 L10.89 94.95 L4.35 88.87 L1.91 77.11 L-0.53 18.44 L3.95 10.17 L5.83 7.74 L15.34 1.89 L22.48 -0.59" stroke="none" stroke-width="0" fill="#ced4da"></path><path d="M24.29 0 M24.29 0 C63.09 -1.6, 97.62 0.36, 143.38 0 M24.29 0 C70.31 -0.3, 116.09 0.67, 143.38 0 M143.38 0 C158.1 0.66, 168.86 8.43, 167.67 24.29 M143.38 0 C157.87 1.47, 166.99 9.34, 167.67 24.29 M167.67 24.29 C167.89 39.83, 167.82 54.06, 167.67 72.86 M167.67 24.29 C167.62 37.74, 167.24 51.85, 167.67 72.86 M167.67 72.86 C169.3 88.62, 157.96 98.95, 143.38 97.15 M167.67 72.86 C168.56 91.14, 158.08 97.41, 143.38 97.15 M143.38 97.15 C100.91 98.75, 57.99 97.87, 24.29 97.15 M143.38 97.15 C104.62 96.51, 65.28 96.38, 24.29 97.15 M24.29 97.15 C8.15 95.85, -1.43 87.37, 0 72.86 M24.29 97.15 C8.87 98.6, 1.48 88.04, 0 72.86 M0 72.86 C-1.15 62.61, 1.03 51.84, 0 24.29 M0 72.86 C-1.26 61.04, 0.49 51.26, 0 24.29 M0 24.29 C-0.98 8.44, 8.03 -0.81, 24.29 0 M0 24.29 C1.63 7.98, 7.38 1.21, 24.29 0" stroke="#495057" stroke-width="1" fill="none"></path></g><g transform="translate(61.333984375 37.78125) rotate(0 32.5 23)"><text x="32.5" y="17" font-family="Virgil, HanziPen SC, Kai, Segoe UI Emoji" font-size="16px" fill="#495057" text-anchor="middle" style="white-space: pre;" direction="ltr">Nacos 0.X</text><text x="32.5" y="40" font-family="Virgil, HanziPen SC, Kai, Segoe UI Emoji" font-size="16px" fill="#495057" text-anchor="middle" style="white-space: pre;" direction="ltr">2018</text></g><g stroke-linecap="round" transform="translate(221.994140625 11.2666015625) rotate(0 83.833984375 48.576171875)"><path d="M22.32 1.77 L142.73 -1.85 L158.54 2.69 L165.22 9.2 L167.37 17.67 L167.27 74.81 L164.69 89.59 L156.67 95.34 L144.05 97.73 L25.18 96.6 L9.54 93.52 L1.47 87.87 L2.2 78.85 L1.61 19.24 L4.63 8.34 L7.75 7.58 L15.17 1.73 L22.91 -0.45" stroke="none" stroke-width="0" fill="#ced4da"></path><path d="M24.29 0 M24.29 0 C71.02 2.14, 117.06 -0.55, 143.38 0 M24.29 0 C49.53 -0.24, 73.99 -0.03, 143.38 0 M143.38 0 C160.11 -1.54, 169.66 7.35, 167.67 24.29 M143.38 0 C160.49 1.87, 167.5 9.44, 167.67 24.29 M167.67 24.29 C166.43 42.06, 169.04 60.36, 167.67 72.86 M167.67 24.29 C167.46 42.57, 166.56 61.92, 167.67 72.86 M167.67 72.86 C167.82 89.88, 158.84 98.76, 143.38 97.15 M167.67 72.86 C168.47 87.32, 159.97 94.94, 143.38 97.15 M143.38 97.15 C101.68 98.4, 60.5 98, 24.29 97.15 M143.38 97.15 C118.59 97.7, 91.26 97.26, 24.29 97.15 M24.29 97.15 C8.38 98.38, -1.29 87.89, 0 72.86 M24.29 97.15 C7.43 97.24, -0.78 87.4, 0 72.86 M0 72.86 C-1.63 62.61, 0.1 53.85, 0 24.29 M0 72.86 C-0.86 58.4, -1.05 44.54, 0 24.29 M0 24.29 C0.13 8.04, 8.63 -1.77, 24.29 0 M0 24.29 C-2.09 8.87, 6.93 -0.14, 24.29 0" stroke="#495057" stroke-width="1" fill="none"></path></g><g transform="translate(273.328125 36.8427734375) rotate(0 32.5 23)"><text x="32.5" y="17" font-family="Virgil, HanziPen SC, Kai, Segoe UI Emoji" font-size="16px" fill="#495057" text-anchor="middle" style="white-space: pre;" direction="ltr">Nacos 1.X</text><text x="32.5" y="40" font-family="Virgil, HanziPen SC, Kai, Segoe UI Emoji" font-size="16px" fill="#495057" text-anchor="middle" style="white-space: pre;" direction="ltr">2019</text></g><g stroke-linecap="round" transform="translate(438.271484375 11.33984375) rotate(0 83.833984375 48.576171875)"><path d="M23.84 -1.77 L142.04 0.28 L159.41 2.12 L163.09 8.9 L167.37 17.91 L166.22 71.18 L165.11 86.98 L156.76 93.96 L143.69 99.11 L23.94 97.55 L8.68 92.21 L1.94 85.75 L-1.38 78.69 L0.33 19.13 L1.64 7.67 L6.74 5.06 L13.54 1.38 L25.74 0.71" stroke="none" stroke-width="0" fill="#40c057"></path><path d="M24.29 0 M24.29 0 C60.74 -0.2, 94.45 -1.27, 143.38 0 M24.29 0 C53.45 1.43, 82.16 0.44, 143.38 0 M143.38 0 C159.63 1.2, 167.22 8.67, 167.67 24.29 M143.38 0 C159.96 -0.02, 166.53 8.47, 167.67 24.29 M167.67 24.29 C166.5 41, 169.11 58.57, 167.67 72.86 M167.67 24.29 C168.52 34.05, 166.77 44.51, 167.67 72.86 M167.67 72.86 C169.28 88.76, 160.57 97.45, 143.38 97.15 M167.67 72.86 C166.75 88.93, 159.38 97.61, 143.38 97.15 M143.38 97.15 C109.57 96.14, 77.66 98.38, 24.29 97.15 M143.38 97.15 C116.64 97.54, 88.17 97.66, 24.29 97.15 M24.29 97.15 C9.27 97.06, -1.71 90.43, 0 72.86 M24.29 97.15 C8.97 96.94, -0.94 86.91, 0 72.86 M0 72.86 C1.45 54.59, -1.16 37.38, 0 24.29 M0 72.86 C0.12 54.23, -0.53 37.91, 0 24.29 M0 24.29 C-1.98 7.12, 9.81 -1.97, 24.29 0 M0 24.29 C-1.96 6.91, 9.66 2.02, 24.29 0" stroke="#2b8a3e" stroke-width="1" fill="none"></path></g><g transform="translate(489.60546875 36.916015625) rotate(0 32.5 23)"><text x="32.5" y="17" font-family="Virgil, HanziPen SC, Kai, Segoe UI Emoji" font-size="16px" fill="#ffffff" text-anchor="middle" style="white-space: pre;" direction="ltr">Nacos 2.X</text><text x="32.5" y="40" font-family="Virgil, HanziPen SC, Kai, Segoe UI Emoji" font-size="16px" fill="#ffffff" text-anchor="middle" style="white-space: pre;" direction="ltr">2021</text></g><g stroke-linecap="round" transform="translate(651.720703125 11.53125) rotate(0 83.833984375 48.576171875)"><path d="M25.03 -0.78 L144.07 -0.06 L157.49 4.75 L165.44 9.77 L167.22 19.3 L165.78 74.37 L163.6 88.26 L158.4 92.61 L141.7 97.39 L24.53 96.77 L11.08 92.64 L2.36 86.67 L2.29 78.38 L1.46 18.87 L3.45 7.75 L5.45 4.76 L14.37 2.97 L22.9 1.48" stroke="none" stroke-width="0" fill="#15aabf"></path><path d="M24.29 0 M24.29 0 C64 1, 103.02 -0.86, 143.38 0 M24.29 0 C68.03 0.28, 110.37 -0.64, 143.38 0 M143.38 0 C159.36 1.53, 168.26 6.71, 167.67 24.29 M143.38 0 C158.31 -1.14, 168.04 6.52, 167.67 24.29 M167.67 24.29 C165.92 35.64, 168.64 50.63, 167.67 72.86 M167.67 24.29 C168.27 40.32, 168.16 55.75, 167.67 72.86 M167.67 72.86 C168.41 87.37, 158.41 98.86, 143.38 97.15 M167.67 72.86 C166.49 89.5, 161.59 96.3, 143.38 97.15 M143.38 97.15 C103.33 95.16, 61.97 94.42, 24.29 97.15 M143.38 97.15 C109.57 96.68, 74.16 95.47, 24.29 97.15 M24.29 97.15 C8.26 96.97, -1.6 89.24, 0 72.86 M24.29 97.15 C8.34 95.78, 1.36 90.88, 0 72.86 M0 72.86 C-2.11 51.68, -1.41 34.02, 0 24.29 M0 72.86 C0.09 54.04, -0.02 36.68, 0 24.29 M0 24.29 C0.34 8.38, 8.66 1.27, 24.29 0 M0 24.29 C-1.28 6.35, 10.29 -1.35, 24.29 0" stroke="#1864ab" stroke-width="1" fill="none"></path></g><g transform="translate(703.0546875 37.107421875) rotate(0 32.5 23)"><text x="32.5" y="17" font-family="Virgil, HanziPen SC, Kai, Segoe UI Emoji" font-size="16px" fill="#ffffff" text-anchor="middle" style="white-space: pre;" direction="ltr">Nacos 3.X</text><text x="32.5" y="40" font-family="Virgil, HanziPen SC, Kai, Segoe UI Emoji" font-size="16px" fill="#ffffff" text-anchor="middle" style="white-space: pre;" direction="ltr">2024</text></g><g stroke-linecap="round"><g transform="translate(178.66796875 60.40731440147039) rotate(0 21.799060286367308 0.18939115220456415)"><path d="M0.98 -0.26 C7.91 0.09, 34.39 1.47, 41.36 1.82 M0.03 -1.44 C7.36 -1.38, 36.53 0.01, 43.57 0.26" stroke="#495057" stroke-width="1" fill="none"></path></g><g transform="translate(178.66796875 60.40731440147039) rotate(0 21.799060286367308 0.18939115220456415)"><path d="M22.96 5.05 C30.84 5.49, 36.5 1.62, 43.79 1.33 M24.26 6.02 C28.48 5.53, 31.72 3.18, 44.16 0.3" stroke="#495057" stroke-width="1" fill="none"></path></g><g transform="translate(178.66796875 60.40731440147039) rotate(0 21.799060286367308 0.18939115220456415)"><path d="M23.56 -9.41 C31.24 -4.93, 36.74 -4.75, 43.79 1.33 M24.86 -8.45 C28.93 -5.6, 32.04 -4.61, 44.16 0.3" stroke="#495057" stroke-width="1" fill="none"></path></g></g><mask></mask><g stroke-linecap="round"><g transform="translate(393.0769162761326 61.40796080951111) rotate(0 21.131728555080485 0.6002611867253336)"><path d="M0.52 1.18 C7.67 1.29, 35.92 1.72, 42.92 1.49 M-0.66 0.76 C6.33 0.44, 34.97 -0.31, 42.02 -0.35" stroke="#495057" stroke-width="1" fill="none"></path></g><g transform="translate(393.0769162761326 61.40796080951111) rotate(0 21.131728555080485 0.6002611867253336)"><path d="M24 7.49 C28.98 4.44, 32.24 4.18, 42.35 -2.35 M22.54 7.33 C29.54 4.43, 37.93 1.75, 41.07 -1.14" stroke="#495057" stroke-width="1" fill="none"></path></g><g transform="translate(393.0769162761326 61.40796080951111) rotate(0 21.131728555080485 0.6002611867253336)"><path d="M23.74 -7.16 C28.9 -5.74, 32.23 -1.53, 42.35 -2.35 M22.28 -7.32 C29.47 -4.62, 37.96 -1.71, 41.07 -1.14" stroke="#495057" stroke-width="1" fill="none"></path></g></g><mask></mask><g stroke-linecap="round"><g transform="translate(608.4581151949196 59.369849373720626) rotate(0 20.48715666424937 0.00920940745623966)"><path d="M0.97 0.62 C7.83 0.6, 34.28 -0.5, 40.95 -0.61 M0.02 -0.09 C6.72 0.03, 33.21 0.16, 39.9 0.35" stroke="#5c940d" stroke-width="1" fill="none"></path></g><g transform="translate(608.4581151949196 59.369849373720626) rotate(0 20.48715666424937 0.00920940745623966)"><path d="M21.51 6.77 C24.16 4.79, 30.67 1.9, 41.5 1.03 M20.27 7.51 C26.16 5.76, 32.29 4.08, 39.66 -0.27" stroke="#5c940d" stroke-width="1" fill="none"></path></g><g transform="translate(608.4581151949196 59.369849373720626) rotate(0 20.48715666424937 0.00920940745623966)"><path d="M21.72 -7.3 C24.26 -5.28, 30.71 -4.16, 41.5 1.03 M20.48 -6.57 C26.33 -3.99, 32.39 -1.35, 39.66 -0.27" stroke="#5c940d" stroke-width="1" fill="none"></path></g></g><mask></mask><g stroke-linecap="round" transform="translate(864.220703125 10) rotate(0 83.833984375 48.576171875)"><path d="M24.29 0 M24.29 0 C59.05 0.97, 89.79 -1.14, 143.38 0 M24.29 0 C55.91 -0.25, 89.14 -0.05, 143.38 0 M143.38 0 C161 1.81, 167.1 7.49, 167.67 24.29 M143.38 0 C158.85 -0.63, 169 8.77, 167.67 24.29 M167.67 24.29 C168.74 39.79, 166.67 53.87, 167.67 72.86 M167.67 24.29 C167.5 36.48, 167.54 46.7, 167.67 72.86 M167.67 72.86 C168.35 90.7, 161.45 95.33, 143.38 97.15 M167.67 72.86 C168.79 89.89, 158.29 95.86, 143.38 97.15 M143.38 97.15 C111.89 97.79, 79.56 100.03, 24.29 97.15 M143.38 97.15 C116.17 97.44, 91.33 97.45, 24.29 97.15 M24.29 97.15 C6.39 96.32, 1.33 87.56, 0 72.86 M24.29 97.15 C9.52 97.58, -0.08 90.65, 0 72.86 M0 72.86 C0.41 63.16, 0.39 53.57, 0 24.29 M0 72.86 C-0.31 59.37, -0.53 45.38, 0 24.29 M0 24.29 C0.48 7.77, 9.11 0.64, 24.29 0 M0 24.29 C0.45 10.03, 9.85 -1.84, 24.29 0" stroke="#e67700" stroke-width="1" fill="none"></path></g><g transform="translate(915.5546875 35.576171875) rotate(0 32.5 23)"><text x="32.5" y="17" font-family="Virgil, HanziPen SC, Kai, Segoe UI Emoji" font-size="16px" fill="#495057" text-anchor="middle" style="white-space: pre;" direction="ltr">Nacos 4.X</text><text x="32.5" y="40" font-family="Virgil, HanziPen SC, Kai, Segoe UI Emoji" font-size="16px" fill="#495057" text-anchor="middle" style="white-space: pre;" direction="ltr">...</text></g><g stroke-linecap="round"><g transform="translate(821.2421875 57.10963938521928) rotate(0 19.575530916568823 1.0724454581863654)"><path d="M-0.22 -0.6 C6.45 -0.15, 34.08 2.26, 40.95 2.74 M-1.8 1.71 C4.64 1.8, 33.05 0.67, 40.06 1.01" stroke="#495057" stroke-width="1" fill="none"></path></g><g transform="translate(821.2421875 57.10963938521928) rotate(0 19.575530916568823 1.0724454581863654)"><path d="M19.88 8.24 C29.41 5.63, 35.93 2.34, 39.37 2.23 M21.79 7.09 C28.72 6.16, 35.55 2.9, 39.47 0.26" stroke="#495057" stroke-width="1" fill="none"></path></g><g transform="translate(821.2421875 57.10963938521928) rotate(0 19.575530916568823 1.0724454581863654)"><path d="M19.86 -5.73 C29.41 -3.04, 35.93 -1.03, 39.37 2.23 M21.77 -6.89 C28.63 -2.73, 35.47 -0.9, 39.47 0.26" stroke="#495057" stroke-width="1" fill="none"></path></g></g><mask></mask><g transform="translate(26.359375 120.099609375) rotate(0 65 22.5)"><text x="0" y="17.5" font-family="Virgil, HanziPen SC, Kai, Segoe UI Emoji" font-size="16px" fill="#495057" text-anchor="start" style="white-space: pre;" direction="ltr">Opensource</text><text x="0" y="40" font-family="Virgil, HanziPen SC, Kai, Segoe UI Emoji" font-size="16px" fill="#495057" text-anchor="start" style="white-space: pre;" direction="ltr">Focus Core features</text></g><g transform="translate(238.40625 121.783203125) rotate(0 64.5 11.5)"><text x="0" y="17" font-family="Virgil, HanziPen SC, Kai, Segoe UI Emoji" font-size="16px" fill="#495057" text-anchor="start" style="white-space: pre;" direction="ltr">Production available</text></g><g transform="translate(450.91796875 122.466796875) rotate(0 70.5 22.5)"><text x="0" y="17.5" font-family="Virgil, HanziPen SC, Kai, Segoe UI Emoji" font-size="16px" fill="#495057" text-anchor="start" style="white-space: pre;" direction="ltr">Extreme performance</text><text x="0" y="40" font-family="Virgil, HanziPen SC, Kai, Segoe UI Emoji" font-size="16px" fill="#495057" text-anchor="start" style="white-space: pre;" direction="ltr">Pluggable featrures</text></g><g transform="translate(658.4140625 122.169921875) rotate(0 79 22.5)"><text x="0" y="17.5" font-family="Virgil, HanziPen SC, Kai, Segoe UI Emoji" font-size="16px" fill="#495057" text-anchor="start" style="white-space: pre;" direction="ltr">Mesh &amp; xDS supported</text><text x="0" y="40" font-family="Virgil, HanziPen SC, Kai, Segoe UI Emoji" font-size="16px" fill="#495057" text-anchor="start" style="white-space: pre;" direction="ltr">More than Microservices</text></g><g transform="translate(868.453125 121.599609375) rotate(0 112 22.5)"><text x="0" y="17.5" font-family="Virgil, HanziPen SC, Kai, Segoe UI Emoji" font-size="16px" fill="#495057" text-anchor="start" style="white-space: pre;" direction="ltr">Unified control plane</text><text x="0" y="40" font-family="Virgil, HanziPen SC, Kai, Segoe UI Emoji" font-size="16px" fill="#495057" text-anchor="start" style="white-space: pre;" direction="ltr">Distributed cloud service standards</text></g><g stroke-linecap="round" transform="translate(637.04296875 216.791015625) rotate(0 202.083984375 72.4453125)"><path d="M32 0 M32 0 C123.6 0.15, 216.57 0.96, 372.17 0 M372.17 0 C395.15 1.55, 402.7 9.18, 404.17 32 M404.17 32 C402.89 54.29, 402.42 71.77, 404.17 112.89 M404.17 112.89 C406.1 135.19, 391.64 146.29, 372.17 144.89 M372.17 144.89 C259.75 144.43, 149.32 144.9, 32 144.89 M32 144.89 C10.82 144.45, -1.87 134.29, 0 112.89 M0 112.89 C-0.5 92.18, 1.18 72.94, 0 32 M0 32 C0.98 9.24, 12.06 0.91, 32 0" stroke="#495057" stroke-width="1.5" fill="none" stroke-dasharray="8 9"></path></g><g stroke-linecap="round" transform="translate(667.48046875 244.048828125) rotate(0 82.5 19.5)"><path d="M8.49 1.37 L159.4 0.67 L162.85 7.21 L162.78 34.49 L161.13 37.95 L156.16 38.57 L3.8 39.5 L-0.7 34.11 L0.95 11.37 L1.42 3.22 L11.46 -0.32" stroke="none" stroke-width="0" fill="#ced4da"></path><path d="M9.75 0 M9.75 0 C61.02 0.2, 113.89 -1.24, 155.25 0 M9.75 0 C50.18 -0.61, 88.4 0.22, 155.25 0 M155.25 0 C160.91 -1.55, 164.88 2.9, 165 9.75 M155.25 0 C161.01 -0.55, 164.42 1.7, 165 9.75 M165 9.75 C162.99 16.69, 165.41 25.49, 165 29.25 M165 9.75 C164.35 14.9, 165.38 18.77, 165 29.25 M165 29.25 C164.07 34.16, 163.67 37.62, 155.25 39 M165 29.25 C166.71 34.64, 162.54 38.13, 155.25 39 M155.25 39 C99.66 37.56, 48.8 40.33, 9.75 39 M155.25 39 C105.5 39.42, 54.33 39.12, 9.75 39 M9.75 39 C2.9 37.75, 1.28 35.57, 0 29.25 M9.75 39 C3.94 38.57, 1.75 36.62, 0 29.25 M0 29.25 C-1.48 26.3, 1.12 19.89, 0 9.75 M0 29.25 C0.57 21.36, -0.67 15.62, 0 9.75 M0 9.75 C1.11 2, 2.43 1.52, 9.75 0 M0 9.75 C-1.25 1.59, 4.64 -0.63, 9.75 0" stroke="#495057" stroke-width="1" fill="none"></path></g><g transform="translate(700.98046875 252.048828125) rotate(0 49 11.5)"><text x="49" y="17" font-family="Virgil, HanziPen SC, Kai, Segoe UI Emoji" font-size="16px" fill="#495057" text-anchor="middle" style="white-space: pre;" direction="ltr">Histroy version</text></g><g stroke-linecap="round" transform="translate(847.150390625 243.69140625) rotate(0 84 19.5)"><path d="M9.98 -1.67 L162.08 -0.14 L167.63 7.23 L168.56 34.93 L165.82 35.41 L156.67 38.63 L5.03 36.75 L-0.84 32.16 L1.34 10.81 L3.25 1.64 L10.64 -0.32" stroke="none" stroke-width="0" fill="#40c057"></path><path d="M9.75 0 M9.75 0 C56.78 -0.32, 105.83 -2.8, 158.25 0 M9.75 0 C51.39 -1.97, 94.52 -1.28, 158.25 0 M158.25 0 C166.48 0.42, 169.96 2.79, 168 9.75 M158.25 0 C163.42 2.21, 169.49 4.59, 168 9.75 M168 9.75 C169.53 16.9, 166.96 25.67, 168 29.25 M168 9.75 C168.68 18, 168.08 24.32, 168 29.25 M168 29.25 C168.02 34.9, 165.09 37.81, 158.25 39 M168 29.25 C168.34 33.76, 166.79 36.83, 158.25 39 M158.25 39 C99.42 38.48, 44.81 37.16, 9.75 39 M158.25 39 C111.65 40.74, 66.02 40.33, 9.75 39 M9.75 39 C2.88 39.09, -0.3 34.9, 0 29.25 M9.75 39 C4.83 38.46, -0.52 36.7, 0 29.25 M0 29.25 C1.55 22.44, 1.18 17.68, 0 9.75 M0 29.25 C-0.21 24.86, -0.67 21.05, 0 9.75 M0 9.75 C1.78 4.79, 1.51 1.83, 9.75 0 M0 9.75 C1.51 5.52, 1.9 0.66, 9.75 0" stroke="#2b8a3e" stroke-width="1" fill="none"></path></g><g transform="translate(858.150390625 251.69140625) rotate(0 73 11.5)"><text x="73" y="17" font-family="Virgil, HanziPen SC, Kai, Segoe UI Emoji" font-size="16px" fill="#ffffff" text-anchor="middle" style="white-space: pre;" direction="ltr">Current Stable version</text></g><g stroke-linecap="round" transform="translate(848.126953125 301.41015625) rotate(0 84 16.5)"><path d="M9.36 -1.98 L162.52 1.51 L168.17 5.45 L167.78 28.74 L167.51 32.55 L160.86 34.41 L5.14 32.16 L-1.14 27.68 L-1.77 6.5 L2.82 3.44 L7.77 0.59" stroke="none" stroke-width="0" fill="#15aabf"></path><path d="M8.25 0 M8.25 0 C63.96 -0.72, 114.68 -1.1, 159.75 0 M8.25 0 C65.52 -1.3, 123.21 -0.67, 159.75 0 M159.75 0 C164.41 0.55, 168.72 2.17, 168 8.25 M159.75 0 C166.91 -1.78, 170.23 1.07, 168 8.25 M168 8.25 C168.42 12.13, 167.37 18.12, 168 24.75 M168 8.25 C167.62 13.04, 167.39 18.94, 168 24.75 M168 24.75 C166.57 30.64, 165.89 34.85, 159.75 33 M168 24.75 C167.33 28.46, 163.51 33.08, 159.75 33 M159.75 33 C127.16 34.05, 91.69 34.24, 8.25 33 M159.75 33 C113.19 33.46, 68.36 32.58, 8.25 33 M8.25 33 C1.61 34.05, -0.71 31.01, 0 24.75 M8.25 33 C1.55 34.81, 0.51 28.39, 0 24.75 M0 24.75 C-1.21 20.99, -0.99 15.53, 0 8.25 M0 24.75 C-0.43 19.18, 0.76 12.83, 0 8.25 M0 8.25 C-0.69 2.5, 1.7 -1.63, 8.25 0 M0 8.25 C1.55 1.66, 2.86 1.97, 8.25 0" stroke="#1864ab" stroke-width="1" fill="none"></path></g><g transform="translate(889.126953125 306.41015625) rotate(0 43 11.5)"><text x="43" y="17" font-family="Virgil, HanziPen SC, Kai, Segoe UI Emoji" font-size="16px" fill="#ffffff" text-anchor="middle" style="white-space: pre;" direction="ltr">Doing version</text></g><g stroke-linecap="round" transform="translate(665.478515625 301.1015625) rotate(0 84 17.5)"><path d="M8.75 0 M8.75 0 C62.86 1.28, 116.22 -0.34, 159.25 0 M8.75 0 C46.69 -0.01, 84.75 1.49, 159.25 0 M159.25 0 C163.81 -1.07, 168.4 3.49, 168 8.75 M159.25 0 C164.74 -0.67, 165.98 2.17, 168 8.75 M168 8.75 C168.93 12.94, 169.51 16.45, 168 26.25 M168 8.75 C168.36 14.49, 167.39 21.2, 168 26.25 M168 26.25 C168.13 33.15, 165.56 36.65, 159.25 35 M168 26.25 C166.83 31.39, 165.38 34.09, 159.25 35 M159.25 35 C99.58 35.43, 41.7 33.69, 8.75 35 M159.25 35 C127.97 33.32, 94.74 35.14, 8.75 35 M8.75 35 C2.05 33.8, 0.99 33.07, 0 26.25 M8.75 35 C1.25 34.19, -0.69 31.67, 0 26.25 M0 26.25 C1.02 21.45, 0.92 14.3, 0 8.75 M0 26.25 C0.33 21.09, 0.56 15.4, 0 8.75 M0 8.75 C-1.98 1.29, 2.15 1.8, 8.75 0 M0 8.75 C-1.52 2.15, 1.71 2.14, 8.75 0" stroke="#e67700" stroke-width="1" fill="none"></path></g><g transform="translate(700.978515625 307.1015625) rotate(0 48.5 11.5)"><text x="48.5" y="17" font-family="Virgil, HanziPen SC, Kai, Segoe UI Emoji" font-size="16px" fill="#495057" text-anchor="middle" style="white-space: pre;" direction="ltr">Planing version</text></g></svg>